<?xml version="1.0" standalone="no"?>
<!DOCTYPE svg PUBLIC "-//W3C//DTD SVG 20010904//EN"
 "http://www.w3.org/TR/2001/REC-SVG-20010904/DTD/svg10.dtd">
<svg version="1.0" xmlns="http://www.w3.org/2000/svg"
 width="490.000000pt" height="490.000000pt" viewBox="0 0 490.000000 490.000000"
 preserveAspectRatio="xMidYMid meet">

<g transform="translate(0.000000,490.000000) scale(0.100000,-0.100000)"
fill="#000000" stroke="none">
<path d="M400 4150 l0 -350 350 0 350 0 0 350 0 350 -350 0 -350 0 0 -350z
m600 0 l0 -250 -250 0 -250 0 0 250 0 250 250 0 250 0 0 -250z"/>
<path d="M600 4150 l0 -150 150 0 150 0 0 150 0 150 -150 0 -150 0 0 -150z"/>
<path d="M1200 4350 l0 -150 100 0 100 0 0 -50 0 -50 50 0 50 0 0 50 0 50 50
0 50 0 0 -250 0 -250 -50 0 -50 0 0 100 0 100 -50 0 -50 0 0 50 0 50 -50 0
-50 0 0 50 0 50 -50 0 -50 0 0 -50 0 -50 50 0 50 0 0 -50 0 -50 -50 0 -50 0 0
-50 0 -50 50 0 50 0 0 50 0 50 50 0 50 0 0 -100 0 -100 -350 0 -350 0 0 -100
0 -100 -100 0 -100 0 0 100 0 100 -50 0 -50 0 0 -100 0 -100 50 0 50 0 0 -50
0 -50 -50 0 -50 0 0 -100 0 -100 50 0 50 0 0 -50 0 -50 100 0 100 0 0 50 0 50
50 0 50 0 0 50 0 50 -100 0 -100 0 0 50 0 50 150 0 150 0 0 -50 0 -50 50 0 50
0 0 -50 0 -50 -50 0 -50 0 0 -100 0 -100 100 0 100 0 0 -50 0 -50 -250 0 -250
0 0 50 0 50 -100 0 -100 0 0 -100 0 -100 50 0 50 0 0 -100 0 -100 50 0 50 0 0
-100 0 -100 -50 0 -50 0 0 -100 0 -100 50 0 50 0 0 -50 0 -50 -50 0 -50 0 0
-50 0 -50 -50 0 -50 0 0 -200 0 -200 50 0 50 0 0 50 0 50 100 0 100 0 0 50 0
50 100 0 100 0 0 -50 0 -50 -50 0 -50 0 0 -100 0 -100 -50 0 -50 0 0 50 0 50
-50 0 -50 0 0 -50 0 -50 50 0 50 0 0 -50 0 -50 -50 0 -50 0 0 -100 0 -100 100
0 100 0 0 100 0 100 50 0 50 0 0 -100 0 -100 100 0 100 0 0 50 0 50 -50 0 -50
0 0 50 0 50 50 0 50 0 0 50 0 50 -50 0 -50 0 0 -50 0 -50 -50 0 -50 0 0 150 0
150 50 0 50 0 0 -50 0 -50 50 0 50 0 0 50 0 50 50 0 50 0 0 50 0 50 50 0 50 0
0 -100 0 -100 100 0 100 0 0 -50 0 -50 50 0 50 0 0 -50 0 -50 -50 0 -50 0 0
-50 0 -50 -50 0 -50 0 0 50 0 50 -100 0 -100 0 0 -350 0 -350 50 0 50 0 0 -50
0 -50 50 0 50 0 0 -50 0 -50 50 0 50 0 0 -50 0 -50 50 0 50 0 0 100 0 100 50
0 50 0 0 -100 0 -100 150 0 150 0 0 50 0 50 50 0 50 0 0 -50 0 -50 50 0 50 0
0 50 0 50 -50 0 -50 0 0 100 0 100 50 0 50 0 0 -50 0 -50 100 0 100 0 0 50 0
50 -50 0 -50 0 0 50 0 50 -50 0 -50 0 0 50 0 50 50 0 50 0 0 50 0 50 -50 0
-50 0 0 -50 0 -50 -50 0 -50 0 0 -50 0 -50 -50 0 -50 0 0 50 0 50 -50 0 -50 0
0 -50 0 -50 -50 0 -50 0 0 -50 0 -50 -50 0 -50 0 0 100 0 100 50 0 50 0 0 50
0 50 150 0 150 0 0 50 0 50 150 0 150 0 0 50 0 50 50 0 50 0 0 100 0 100 50 0
50 0 0 -150 0 -150 -50 0 -50 0 0 -50 0 -50 -50 0 -50 0 0 -100 0 -100 50 0
50 0 0 100 0 100 50 0 50 0 0 -50 0 -50 50 0 50 0 0 50 0 50 50 0 50 0 0 100
0 100 -50 0 -50 0 0 100 0 100 50 0 50 0 0 -50 0 -50 100 0 100 0 0 -50 0 -50
-50 0 -50 0 0 -50 0 -50 100 0 100 0 0 -50 0 -50 -50 0 -50 0 0 -50 0 -50 50
0 50 0 0 50 0 50 50 0 50 0 0 -50 0 -50 100 0 100 0 0 50 0 50 50 0 50 0 0
-200 0 -200 -50 0 -50 0 0 100 0 100 -150 0 -150 0 0 -50 0 -50 -50 0 -50 0 0
50 0 50 -50 0 -50 0 0 50 0 50 -50 0 -50 0 0 -50 0 -50 -50 0 -50 0 0 -50 0
-50 50 0 50 0 0 50 0 50 50 0 50 0 0 -50 0 -50 50 0 50 0 0 -100 0 -100 -100
0 -100 0 0 -50 0 -50 200 0 200 0 0 50 0 50 50 0 50 0 0 50 0 50 50 0 50 0 0
-50 0 -50 50 0 50 0 0 -50 0 -50 150 0 150 0 0 50 0 50 50 0 50 0 0 50 0 50
50 0 50 0 0 -100 0 -100 100 0 100 0 0 50 0 50 50 0 50 0 0 100 0 100 -50 0
-50 0 0 50 0 50 50 0 50 0 0 50 0 50 50 0 50 0 0 -200 0 -200 50 0 50 0 0 200
0 200 -50 0 -50 0 0 50 0 50 -50 0 -50 0 0 50 0 50 50 0 50 0 0 150 0 150 50
0 50 0 0 50 0 50 -50 0 -50 0 0 -50 0 -50 -50 0 -50 0 0 50 0 50 -50 0 -50 0
0 -100 0 -100 -100 0 -100 0 0 50 0 50 50 0 50 0 0 100 0 100 50 0 50 0 0 50
0 50 100 0 100 0 0 -50 0 -50 50 0 50 0 0 200 0 200 -50 0 -50 0 0 50 0 50 50
0 50 0 0 50 0 50 -100 0 -100 0 0 100 0 100 100 0 100 0 0 150 0 150 -100 0
-100 0 0 50 0 50 50 0 50 0 0 50 0 50 50 0 50 0 0 150 0 150 -50 0 -50 0 0
-50 0 -50 -100 0 -100 0 0 -50 0 -50 -50 0 -50 0 0 100 0 100 -50 0 -50 0 0
50 0 50 100 0 100 0 0 50 0 50 50 0 50 0 0 -50 0 -50 100 0 100 0 0 50 0 50
-100 0 -100 0 0 50 0 50 50 0 50 0 0 50 0 50 50 0 50 0 0 50 0 50 -150 0 -150
0 0 -50 0 -50 50 0 50 0 0 -50 0 -50 -50 0 -50 0 0 -50 0 -50 -50 0 -50 0 0
150 0 150 -50 0 -50 0 0 -50 0 -50 -50 0 -50 0 0 -100 0 -100 -50 0 -50 0 0
50 0 50 -50 0 -50 0 0 -50 0 -50 -100 0 -100 0 0 -50 0 -50 50 0 50 0 0 -50 0
-50 50 0 50 0 0 -150 0 -150 -50 0 -50 0 0 100 0 100 -50 0 -50 0 0 50 0 50
-100 0 -100 0 0 50 0 50 50 0 50 0 0 100 0 100 100 0 100 0 0 100 0 100 50 0
50 0 0 -50 0 -50 50 0 50 0 0 50 0 50 -50 0 -50 0 0 100 0 100 -50 0 -50 0 0
-100 0 -100 -50 0 -50 0 0 150 0 150 50 0 50 0 0 50 0 50 50 0 50 0 0 100 0
100 -50 0 -50 0 0 50 0 50 -50 0 -50 0 0 50 0 50 -50 0 -50 0 0 -100 0 -100
50 0 50 0 0 -50 0 -50 -100 0 -100 0 0 50 0 50 -50 0 -50 0 0 -50 0 -50 -50 0
-50 0 0 -50 0 -50 -50 0 -50 0 0 150 0 150 50 0 50 0 0 50 0 50 -50 0 -50 0 0
-50 0 -50 -100 0 -100 0 0 -50 0 -50 -50 0 -50 0 0 100 0 100 -50 0 -50 0 0
-50 0 -50 -50 0 -50 0 0 -100 0 -100 -50 0 -50 0 0 100 0 100 -50 0 -50 0 0
50 0 50 -50 0 -50 0 0 -150 0 -150 -100 0 -100 0 0 50 0 50 50 0 50 0 0 50 0
50 -50 0 -50 0 0 -50 0 -50 -50 0 -50 0 0 100 0 100 -50 0 -50 0 0 -100 0
-100 -50 0 -50 0 0 100 0 100 -50 0 -50 0 0 -100 0 -100 -50 0 -50 0 0 -50 0
-50 -50 0 -50 0 0 150 0 150 -100 0 -100 0 0 -150z m500 -100 l0 -50 -50 0
-50 0 0 50 0 50 50 0 50 0 0 -50z m200 0 l0 -50 50 0 50 0 0 -100 0 -100 50 0
50 0 0 50 0 50 50 0 50 0 0 50 0 50 50 0 50 0 0 -50 0 -50 -50 0 -50 0 0 -50
0 -50 100 0 100 0 0 50 0 50 50 0 50 0 0 -50 0 -50 50 0 50 0 0 -250 0 -250
50 0 50 0 0 -200 0 -200 50 0 50 0 0 50 0 50 50 0 50 0 0 50 0 50 -50 0 -50 0
0 150 0 150 50 0 50 0 0 50 0 50 -50 0 -50 0 0 50 0 50 -50 0 -50 0 0 50 0 50
50 0 50 0 0 50 0 50 -50 0 -50 0 0 50 0 50 -50 0 -50 0 0 100 0 100 50 0 50 0
0 -100 0 -100 50 0 50 0 0 100 0 100 50 0 50 0 0 -100 0 -100 50 0 50 0 0 -50
0 -50 -50 0 -50 0 0 -50 0 -50 50 0 50 0 0 -50 0 -50 50 0 50 0 0 150 0 150
50 0 50 0 0 50 0 50 50 0 50 0 0 -50 0 -50 -50 0 -50 0 0 -50 0 -50 100 0 100
0 0 -150 0 -150 50 0 50 0 0 -50 0 -50 -50 0 -50 0 0 -50 0 -50 -50 0 -50 0 0
-100 0 -100 -50 0 -50 0 0 -50 0 -50 -150 0 -150 0 0 -50 0 -50 100 0 100 0 0
-50 0 -50 50 0 50 0 0 50 0 50 50 0 50 0 0 -50 0 -50 50 0 50 0 0 50 0 50 50
0 50 0 0 -150 0 -150 -50 0 -50 0 0 -50 0 -50 50 0 50 0 0 -50 0 -50 50 0 50
0 0 50 0 50 100 0 100 0 0 150 0 150 50 0 50 0 0 100 0 100 50 0 50 0 0 -100
0 -100 50 0 50 0 0 -50 0 -50 100 0 100 0 0 -50 0 -50 -150 0 -150 0 0 -50 0
-50 -50 0 -50 0 0 -50 0 -50 50 0 50 0 0 -50 0 -50 50 0 50 0 0 -50 0 -50
-100 0 -100 0 0 -50 0 -50 -50 0 -50 0 0 -50 0 -50 50 0 50 0 0 -50 0 -50 -50
0 -50 0 0 -50 0 -50 -50 0 -50 0 0 50 0 50 50 0 50 0 0 50 0 50 -100 0 -100 0
0 -50 0 -50 -50 0 -50 0 0 -50 0 -50 50 0 50 0 0 -50 0 -50 -50 0 -50 0 0 50
0 50 -100 0 -100 0 0 -100 0 -100 100 0 100 0 0 -100 0 -100 -100 0 -100 0 0
-50 0 -50 100 0 100 0 0 -100 0 -100 50 0 50 0 0 -100 0 -100 -50 0 -50 0 0
50 0 50 -50 0 -50 0 0 -100 0 -100 -50 0 -50 0 0 100 0 100 50 0 50 0 0 50 0
50 -50 0 -50 0 0 100 0 100 -50 0 -50 0 0 50 0 50 -50 0 -50 0 0 -50 0 -50
-50 0 -50 0 0 -50 0 -50 -50 0 -50 0 0 50 0 50 -100 0 -100 0 0 -50 0 -50 -50
0 -50 0 0 100 0 100 -150 0 -150 0 0 -50 0 -50 -50 0 -50 0 0 50 0 50 -50 0
-50 0 0 50 0 50 -50 0 -50 0 0 -100 0 -100 50 0 50 0 0 -50 0 -50 100 0 100 0
0 -50 0 -50 50 0 50 0 0 -50 0 -50 -100 0 -100 0 0 50 0 50 -50 0 -50 0 0
-100 0 -100 -50 0 -50 0 0 50 0 50 -50 0 -50 0 0 50 0 50 100 0 100 0 0 50 0
50 -150 0 -150 0 0 -50 0 -50 -100 0 -100 0 0 50 0 50 100 0 100 0 0 50 0 50
-50 0 -50 0 0 50 0 50 -50 0 -50 0 0 50 0 50 50 0 50 0 0 100 0 100 100 0 100
0 0 50 0 50 -150 0 -150 0 0 -100 0 -100 -100 0 -100 0 0 100 0 100 100 0 100
0 0 50 0 50 -50 0 -50 0 0 50 0 50 -150 0 -150 0 0 50 0 50 -100 0 -100 0 0
-50 0 -50 50 0 50 0 0 -50 0 -50 50 0 50 0 0 -150 0 -150 -50 0 -50 0 0 -50 0
-50 -50 0 -50 0 0 50 0 50 -50 0 -50 0 0 150 0 150 -100 0 -100 0 0 50 0 50
50 0 50 0 0 50 0 50 -50 0 -50 0 0 150 0 150 -50 0 -50 0 0 50 0 50 100 0 100
0 0 50 0 50 200 0 200 0 0 50 0 50 50 0 50 0 0 100 0 100 -150 0 -150 0 0 50
0 50 50 0 50 0 0 50 0 50 -50 0 -50 0 0 50 0 50 100 0 100 0 0 50 0 50 -100 0
-100 0 0 50 0 50 100 0 100 0 0 -50 0 -50 100 0 100 0 0 100 0 100 50 0 50 0
0 -100 0 -100 50 0 50 0 0 50 0 50 50 0 50 0 0 -50 0 -50 50 0 50 0 0 100 0
100 -50 0 -50 0 0 100 0 100 50 0 50 0 0 100 0 100 50 0 50 0 0 50 0 50 -50 0
-50 0 0 50 0 50 50 0 50 0 0 -50z m2100 -900 l0 -50 -50 0 -50 0 0 50 0 50 50
0 50 0 0 -50z m-200 -100 l0 -50 -50 0 -50 0 0 50 0 50 50 0 50 0 0 -50z m400
-600 l0 -50 -50 0 -50 0 0 50 0 50 50 0 50 0 0 -50z m100 -200 l0 -50 -50 0
-50 0 0 50 0 50 50 0 50 0 0 -50z m-200 -200 l0 -50 -50 0 -50 0 0 50 0 50 50
0 50 0 0 -50z m200 -150 l0 -100 50 0 50 0 0 -50 0 -50 -50 0 -50 0 0 -50 0
-50 -50 0 -50 0 0 50 0 50 -50 0 -50 0 0 -150 0 -150 -50 0 -50 0 0 -50 0 -50
-50 0 -50 0 0 -50 0 -50 -50 0 -50 0 0 -50 0 -50 -50 0 -50 0 0 50 0 50 -50 0
-50 0 0 50 0 50 50 0 50 0 0 100 0 100 -50 0 -50 0 0 50 0 50 50 0 50 0 0 -50
0 -50 100 0 100 0 0 50 0 50 -50 0 -50 0 0 50 0 50 150 0 150 0 0 50 0 50 -50
0 -50 0 0 50 0 50 50 0 50 0 0 -50 0 -50 50 0 50 0 0 100 0 100 50 0 50 0 0
-100z m-3500 -150 l0 -50 -150 0 -150 0 0 50 0 50 150 0 150 0 0 -50z m1700
-500 l0 -50 -50 0 -50 0 0 50 0 50 50 0 50 0 0 -50z m700 -100 l0 -50 -50 0
-50 0 0 50 0 50 50 0 50 0 0 -50z m-1800 -150 l0 -100 50 0 50 0 0 50 0 50 50
0 50 0 0 -50 0 -50 50 0 50 0 0 50 0 50 50 0 50 0 0 -100 0 -100 -200 0 -200
0 0 -50 0 -50 100 0 100 0 0 -50 0 -50 -100 0 -100 0 0 50 0 50 -50 0 -50 0 0
200 0 200 50 0 50 0 0 -100z m2600 -150 l0 -150 -150 0 -150 0 0 150 0 150
150 0 150 0 0 -150z m300 100 l0 -50 -50 0 -50 0 0 50 0 50 50 0 50 0 0 -50z
m0 -200 l0 -50 -100 0 -100 0 0 50 0 50 100 0 100 0 0 -50z m-400 -250 l0
-100 -50 0 -50 0 0 -50 0 -50 -150 0 -150 0 0 50 0 50 50 0 50 0 0 50 0 50 50
0 50 0 0 50 0 50 100 0 100 0 0 -100z m200 50 l0 -50 50 0 50 0 0 -50 0 -50
-50 0 -50 0 0 50 0 50 -50 0 -50 0 0 50 0 50 50 0 50 0 0 -50z m-2500 -100 l0
-50 -100 0 -100 0 0 50 0 50 100 0 100 0 0 -50z m400 -50 l0 -100 -100 0 -100
0 0 100 0 100 100 0 100 0 0 -100z m1300 50 l0 -50 -50 0 -50 0 0 -50 0 -50
-50 0 -50 0 0 50 0 50 50 0 50 0 0 50 0 50 50 0 50 0 0 -50z"/>
<path d="M1900 3950 l0 -50 -50 0 -50 0 0 -100 0 -100 50 0 50 0 0 100 0 100
50 0 50 0 0 -150 0 -150 100 0 100 0 0 -50 0 -50 -50 0 -50 0 0 -100 0 -100
-50 0 -50 0 0 50 0 50 -50 0 -50 0 0 50 0 50 -50 0 -50 0 0 -100 0 -100 -150
0 -150 0 0 -50 0 -50 100 0 100 0 0 -100 0 -100 -150 0 -150 0 0 -50 0 -50
100 0 100 0 0 -50 0 -50 100 0 100 0 0 -100 0 -100 -100 0 -100 0 0 50 0 50
-50 0 -50 0 0 50 0 50 -50 0 -50 0 0 -50 0 -50 50 0 50 0 0 -50 0 -50 -50 0
-50 0 0 -50 0 -50 -100 0 -100 0 0 100 0 100 50 0 50 0 0 50 0 50 -50 0 -50 0
0 -50 0 -50 -100 0 -100 0 0 -50 0 -50 50 0 50 0 0 -50 0 -50 -50 0 -50 0 0
-50 0 -50 50 0 50 0 0 50 0 50 50 0 50 0 0 -50 0 -50 50 0 50 0 0 -50 0 -50
50 0 50 0 0 50 0 50 50 0 50 0 0 50 0 50 100 0 100 0 0 -50 0 -50 150 0 150 0
0 -50 0 -50 50 0 50 0 0 -50 0 -50 -100 0 -100 0 0 50 0 50 -150 0 -150 0 0
-50 0 -50 50 0 50 0 0 -50 0 -50 100 0 100 0 0 -50 0 -50 50 0 50 0 0 -50 0
-50 -50 0 -50 0 0 -50 0 -50 -50 0 -50 0 0 -50 0 -50 -50 0 -50 0 0 -50 0 -50
100 0 100 0 0 100 0 100 100 0 100 0 0 50 0 50 50 0 50 0 0 50 0 50 -100 0
-100 0 0 50 0 50 100 0 100 0 0 100 0 100 200 0 200 0 0 -50 0 -50 100 0 100
0 0 -50 0 -50 50 0 50 0 0 50 0 50 50 0 50 0 0 -50 0 -50 100 0 100 0 0 -50 0
-50 -50 0 -50 0 0 -150 0 -150 -100 0 -100 0 0 -50 0 -50 100 0 100 0 0 50 0
50 100 0 100 0 0 50 0 50 -50 0 -50 0 0 100 0 100 50 0 50 0 0 50 0 50 50 0
50 0 0 50 0 50 50 0 50 0 0 50 0 50 50 0 50 0 0 50 0 50 50 0 50 0 0 -50 0
-50 50 0 50 0 0 50 0 50 50 0 50 0 0 100 0 100 -100 0 -100 0 0 -50 0 -50 -50
0 -50 0 0 -50 0 -50 -50 0 -50 0 0 -50 0 -50 -100 0 -100 0 0 -50 0 -50 -50 0
-50 0 0 100 0 100 100 0 100 0 0 50 0 50 -50 0 -50 0 0 50 0 50 50 0 50 0 0
50 0 50 -50 0 -50 0 0 -50 0 -50 -50 0 -50 0 0 100 0 100 50 0 50 0 0 100 0
100 -50 0 -50 0 0 -50 0 -50 -50 0 -50 0 0 50 0 50 -50 0 -50 0 0 -50 0 -50
-50 0 -50 0 0 100 0 100 -50 0 -50 0 0 -50 0 -50 -50 0 -50 0 0 50 0 50 -50 0
-50 0 0 50 0 50 -50 0 -50 0 0 100 0 100 -150 0 -150 0 0 50 0 50 100 0 100 0
0 50 0 50 -100 0 -100 0 0 50 0 50 100 0 100 0 0 50 0 50 50 0 50 0 0 100 0
100 -50 0 -50 0 0 -100 0 -100 -50 0 -50 0 0 50 0 50 -50 0 -50 0 0 -100 0
-100 -50 0 -50 0 0 100 0 100 -50 0 -50 0 0 50 0 50 -50 0 -50 0 0 -50z m100
-700 l0 -50 50 0 50 0 0 50 0 50 150 0 150 0 0 -50 0 -50 50 0 50 0 0 -50 0
-50 -100 0 -100 0 0 -50 0 -50 -50 0 -50 0 0 -50 0 -50 100 0 100 0 0 -50 0
-50 -200 0 -200 0 0 -100 0 -100 100 0 100 0 0 50 0 50 50 0 50 0 0 -50 0 -50
50 0 50 0 0 50 0 50 50 0 50 0 0 150 0 150 100 0 100 0 0 -50 0 -50 -50 0 -50
0 0 -200 0 -200 50 0 50 0 0 50 0 50 50 0 50 0 0 50 0 50 -50 0 -50 0 0 50 0
50 100 0 100 0 0 -50 0 -50 100 0 100 0 0 -50 0 -50 50 0 50 0 0 -100 0 -100
-150 0 -150 0 0 -100 0 -100 -50 0 -50 0 0 100 0 100 50 0 50 0 0 50 0 50 50
0 50 0 0 50 0 50 -100 0 -100 0 0 -50 0 -50 -50 0 -50 0 0 -100 0 -100 -50 0
-50 0 0 50 0 50 -100 0 -100 0 0 50 0 50 -100 0 -100 0 0 -100 0 -100 -50 0
-50 0 0 50 0 50 -50 0 -50 0 0 100 0 100 -50 0 -50 0 0 250 0 250 50 0 50 0 0
50 0 50 -50 0 -50 0 0 50 0 50 50 0 50 0 0 -50z m1100 -400 l0 -50 -50 0 -50
0 0 50 0 50 50 0 50 0 0 -50z m700 -400 l0 -50 -50 0 -50 0 0 50 0 50 50 0 50
0 0 -50z m-700 -200 l0 -50 -50 0 -50 0 0 50 0 50 50 0 50 0 0 -50z"/>
<path d="M2100 3150 l0 -50 -50 0 -50 0 0 -100 0 -100 50 0 50 0 0 100 0 100
100 0 100 0 0 50 0 50 -100 0 -100 0 0 -50z"/>
<path d="M2400 2550 l0 -50 50 0 50 0 0 50 0 50 -50 0 -50 0 0 -50z"/>
<path d="M2800 3850 l0 -50 50 0 50 0 0 -50 0 -50 50 0 50 0 0 -100 0 -100 50
0 50 0 0 -100 0 -100 50 0 50 0 0 150 0 150 100 0 100 0 0 50 0 50 -200 0
-200 0 0 50 0 50 -50 0 -50 0 0 50 0 50 -50 0 -50 0 0 -50z"/>
<path d="M3200 3850 l0 -50 50 0 50 0 0 50 0 50 -50 0 -50 0 0 -50z"/>
<path d="M1300 3250 l0 -50 50 0 50 0 0 50 0 50 -50 0 -50 0 0 -50z"/>
<path d="M3900 2950 l0 -50 50 0 50 0 0 50 0 50 -50 0 -50 0 0 -50z"/>
<path d="M800 2550 l0 -50 50 0 50 0 0 50 0 50 -50 0 -50 0 0 -50z"/>
<path d="M1000 2050 l0 -50 50 0 50 0 0 50 0 50 -50 0 -50 0 0 -50z"/>
<path d="M2400 2000 l0 -100 -50 0 -50 0 0 -50 0 -50 -50 0 -50 0 0 -50 0 -50
50 0 50 0 0 50 0 50 50 0 50 0 0 -50 0 -50 50 0 50 0 0 50 0 50 50 0 50 0 0
-100 0 -100 50 0 50 0 0 50 0 50 50 0 50 0 0 50 0 50 100 0 100 0 0 50 0 50
-100 0 -100 0 0 50 0 50 -150 0 -150 0 0 50 0 50 -50 0 -50 0 0 -100z m400
-150 l0 -50 -50 0 -50 0 0 50 0 50 50 0 50 0 0 -50z"/>
<path d="M1000 1850 l0 -50 50 0 50 0 0 50 0 50 -50 0 -50 0 0 -50z"/>
<path d="M4200 1950 l0 -50 50 0 50 0 0 50 0 50 -50 0 -50 0 0 -50z"/>
<path d="M3900 1650 l0 -50 50 0 50 0 0 50 0 50 -50 0 -50 0 0 -50z"/>
<path d="M3700 1450 l0 -50 50 0 50 0 0 50 0 50 -50 0 -50 0 0 -50z"/>
<path d="M3800 1050 l0 -50 50 0 50 0 0 50 0 50 -50 0 -50 0 0 -50z"/>
<path d="M3700 650 l0 -50 50 0 50 0 0 50 0 50 -50 0 -50 0 0 -50z"/>
<path d="M3800 4150 l0 -350 350 0 350 0 0 350 0 350 -350 0 -350 0 0 -350z
m600 0 l0 -250 -250 0 -250 0 0 250 0 250 250 0 250 0 0 -250z"/>
<path d="M4000 4150 l0 -150 150 0 150 0 0 150 0 150 -150 0 -150 0 0 -150z"/>
<path d="M400 750 l0 -350 350 0 350 0 0 350 0 350 -350 0 -350 0 0 -350z
m600 0 l0 -250 -250 0 -250 0 0 250 0 250 250 0 250 0 0 -250z"/>
<path d="M600 750 l0 -150 150 0 150 0 0 150 0 150 -150 0 -150 0 0 -150z"/>
<path d="M2500 650 l0 -50 50 0 50 0 0 50 0 50 -50 0 -50 0 0 -50z"/>
<path d="M1200 450 l0 -50 50 0 50 0 0 50 0 50 -50 0 -50 0 0 -50z"/>
<path d="M2400 450 l0 -50 50 0 50 0 0 50 0 50 -50 0 -50 0 0 -50z"/>
<path d="M2600 450 l0 -50 50 0 50 0 0 50 0 50 -50 0 -50 0 0 -50z"/>
</g>
</svg>
